<?xml version="1.0" encoding="UTF-8" standalone="no"?>
<!-- Created with Inkscape (http://www.inkscape.org/) -->

<svg
   xmlns:dc="http://purl.org/dc/elements/1.1/"
   xmlns:cc="http://creativecommons.org/ns#"
   xmlns:rdf="http://www.w3.org/1999/02/22-rdf-syntax-ns#"
   xmlns:svg="http://www.w3.org/2000/svg"
   xmlns="http://www.w3.org/2000/svg"
   xmlns:xlink="http://www.w3.org/1999/xlink"
   xmlns:sodipodi="http://sodipodi.sourceforge.net/DTD/sodipodi-0.dtd"
   xmlns:inkscape="http://www.inkscape.org/namespaces/inkscape"
   width="1052.3622"
   height="744.09448"
   id="svg2"
   version="1.1"
   inkscape:version="0.48.2 r9819"
   sodipodi:docname="logo.svg">
  <defs
     id="defs4">
    <linearGradient
       id="linearGradient3934">
      <stop
         style="stop-color:#c91313;stop-opacity:1;"
         offset="0"
         id="stop3946" />
      <stop
         style="stop-color:#ffb0b0;stop-opacity:1;"
         offset="1"
         id="stop3938" />
    </linearGradient>
    <linearGradient
       inkscape:collect="always"
       xlink:href="#linearGradient3934"
       id="linearGradient3940"
       x1="122.57492"
       y1="873.98822"
       x2="122.57492"
       y2="980.0979"
       gradientUnits="userSpaceOnUse" />
    <linearGradient
       inkscape:collect="always"
       xlink:href="#linearGradient3934"
       id="linearGradient3761"
       gradientUnits="userSpaceOnUse"
       x1="122.57492"
       y1="873.98822"
       x2="122.57492"
       y2="980.0979"
       gradientTransform="translate(0,-308.26771)" />
    <linearGradient
       inkscape:collect="always"
       xlink:href="#linearGradient3934"
       id="linearGradient3767"
       gradientUnits="userSpaceOnUse"
       gradientTransform="translate(0,-308.26771)"
       x1="122.57492"
       y1="873.98822"
       x2="122.57492"
       y2="980.0979" />
    <linearGradient
       inkscape:collect="always"
       xlink:href="#linearGradient3934"
       id="linearGradient3772"
       gradientUnits="userSpaceOnUse"
       gradientTransform="translate(0,-308.26771)"
       x1="122.57492"
       y1="873.98822"
       x2="122.57492"
       y2="980.0979" />
    <linearGradient
       inkscape:collect="always"
       xlink:href="#linearGradient3934"
       id="linearGradient3790"
       x1="53.475266"
       y1="582.55463"
       x2="53.660942"
       y2="607.24982"
       gradientUnits="userSpaceOnUse" />
    <linearGradient
       inkscape:collect="always"
       xlink:href="#linearGradient3934"
       id="linearGradient3803"
       gradientUnits="userSpaceOnUse"
       x1="53.475266"
       y1="582.55463"
       x2="53.660942"
       y2="607.24982" />
    <linearGradient
       inkscape:collect="always"
       xlink:href="#linearGradient3934"
       id="linearGradient3808"
       gradientUnits="userSpaceOnUse"
       x1="53.475266"
       y1="582.55463"
       x2="53.660942"
       y2="607.24982"
       gradientTransform="matrix(3.5334005,0,0,3.5334005,-121.59193,-1174.4787)" />
  </defs>
  <sodipodi:namedview
     id="base"
     pagecolor="#ffffff"
     bordercolor="#666666"
     borderopacity="1.0"
     inkscape:pageopacity="0.0"
     inkscape:pageshadow="2"
     inkscape:zoom="1"
     inkscape:cx="48.791234"
     inkscape:cy="126.98511"
     inkscape:document-units="px"
     inkscape:current-layer="layer1"
     showgrid="false"
     inkscape:window-width="1440"
     inkscape:window-height="784"
     inkscape:window-x="0"
     inkscape:window-y="0"
     inkscape:window-maximized="0" />
  <metadata
     id="metadata7">
    <rdf:RDF>
      <cc:Work
         rdf:about="">
        <dc:format>image/svg+xml</dc:format>
        <dc:type
           rdf:resource="http://purl.org/dc/dcmitype/StillImage" />
        <dc:title />
      </cc:Work>
    </rdf:RDF>
  </metadata>
  <g
     inkscape:label="Ebene 1"
     inkscape:groupmode="layer"
     id="layer1"
     transform="translate(0,-308.26771)">
    <rect
       style="fill:none;stroke:none"
       id="rect3845"
       width="108.94141"
       height="108.94141"
       x="28.874594"
       y="873.20306" />
    <path
       style="font-size:40px;font-style:normal;font-variant:normal;font-weight:100;font-stretch:normal;text-align:start;line-height:125%;letter-spacing:0px;word-spacing:0px;writing-mode:lr-tb;text-anchor:start;fill:url(#linearGradient3808);fill-opacity:1;stroke:#000000;stroke-width:1.07472849;stroke-opacity:1;font-family:Skia;-inkscape-font-specification:Skia Thin"
       d="m 77.493099,877.87493 c -3.496625,1.1e-4 -7.342876,0.0185 -11.483552,0.11042 -3.940416,0.0877 -5.907464,0.10629 -6.514707,0.11042 -0.03087,2.1e-4 -0.309,0 -0.331256,0 l -26.058829,0 6.183451,4.63759 -6.183451,4.63758 26.169248,0 c 0.121665,9.91936 0.220826,20.21674 0.220837,24.73381 l 0,12.69816 c -1.7e-5,11.82403 -0.01842,21.74331 -0.110419,29.70265 -0.09203,7.91336 -0.174846,13.25025 -0.220837,16.01072 l 11.373132,0 c -0.04604,-2.76047 -0.128849,-9.50521 -0.220837,-20.31705 -0.04604,-10.81182 -2.9e-5,-19.42445 0,-25.72757 l 0,-14.13361 c 0.04598,-6.67106 0.01838,-14.33596 0.110419,-23.07752 0.414043,7e-5 1.11336,7e-5 1.987537,0 0.874118,-0.0459 2.097925,-0.11035 3.754238,-0.11042 2.484387,7e-5 5.226451,0.10135 8.170989,0.33125 2.944456,0.18414 5.723324,0.7546 8.391826,1.76671 3.266505,1.19627 5.88895,3.16543 7.729312,5.74178 1.88626,2.53051 2.76041,5.51182 2.76048,9.05434 -7e-5,3.86472 -0.58897,6.97485 -1.87713,9.27517 -1.24226,2.30046 -2.714512,4.17757 -4.416753,5.74177 -1.978382,1.79437 -4.389189,3.51506 -7.287634,5.07926 -2.898537,1.51831 -5.318545,2.52126 -7.066801,2.98131 l 0,0.66252 c 12.836134,14.6765 22.322938,25.40554 28.488038,32.35269 2.52532,2.8269 2.76695,3.0147 4.41676,4.85843 l -11.04188,2.76047 29.15056,9.71685 -6.18346,-30.14432 -3.86466,10.37936 c -1.94207,-2.00919 -1.99013,-1.98344 -5.18968,-5.3001 -7.49934,-7.82129 -14.45571,-15.49541 -20.758727,-22.85668 l 0,-0.33126 c 3.588547,-2.11633 7.370387,-5.28166 11.373127,-9.60643 4.04862,-4.37067 6.07297,-9.80879 6.07304,-16.34198 -7e-5,-5.06079 -1.3067,-9.52354 -3.97508,-13.25025 -2.66852,-3.77254 -6.26632,-6.56983 -10.82103,-8.50224 -3.588671,-1.51816 -7.269292,-2.52115 -11.041883,-2.98131 -3.772682,-0.45998 -7.701746,-0.66241 -11.704388,-0.66252 z"
       id="text3780"
       inkscape:connector-curvature="0" />
  </g>
</svg>
