<?xml version="1.0" encoding="UTF-8" standalone="no"?>
<!-- Created with Inkscape (http://www.inkscape.org/) -->

<svg
   xmlns:dc="http://purl.org/dc/elements/1.1/"
   xmlns:cc="http://creativecommons.org/ns#"
   xmlns:rdf="http://www.w3.org/1999/02/22-rdf-syntax-ns#"
   xmlns:svg="http://www.w3.org/2000/svg"
   xmlns="http://www.w3.org/2000/svg"
   xmlns:xlink="http://www.w3.org/1999/xlink"
   xmlns:sodipodi="http://sodipodi.sourceforge.net/DTD/sodipodi-0.dtd"
   xmlns:inkscape="http://www.inkscape.org/namespaces/inkscape"
   width="1052.3622"
   height="744.09448"
   id="svg2"
   version="1.1"
   inkscape:version="0.48.2 r9819"
   sodipodi:docname="logo.svg">
  <defs
     id="defs4">
    <linearGradient
       id="linearGradient3934">
      <stop
         style="stop-color:#c91313;stop-opacity:1;"
         offset="0"
         id="stop3946" />
      <stop
         style="stop-color:#ffb0b0;stop-opacity:1;"
         offset="1"
         id="stop3938" />
    </linearGradient>
    <linearGradient
       inkscape:collect="always"
       xlink:href="#linearGradient3934"
       id="linearGradient3940"
       x1="122.57492"
       y1="873.98822"
       x2="122.57492"
       y2="980.0979"
       gradientUnits="userSpaceOnUse" />
  </defs>
  <sodipodi:namedview
     id="base"
     pagecolor="#ffffff"
     bordercolor="#666666"
     borderopacity="1.0"
     inkscape:pageopacity="0.0"
     inkscape:pageshadow="2"
     inkscape:zoom="1"
     inkscape:cx="206.18109"
     inkscape:cy="212.04724"
     inkscape:document-units="px"
     inkscape:current-layer="layer1"
     showgrid="false"
     inkscape:window-width="1440"
     inkscape:window-height="784"
     inkscape:window-x="0"
     inkscape:window-y="0"
     inkscape:window-maximized="0" />
  <metadata
     id="metadata7">
    <rdf:RDF>
      <cc:Work
         rdf:about="">
        <dc:format>image/svg+xml</dc:format>
        <dc:type
           rdf:resource="http://purl.org/dc/dcmitype/StillImage" />
        <dc:title />
      </cc:Work>
    </rdf:RDF>
  </metadata>
  <g
     inkscape:label="Ebene 1"
     inkscape:groupmode="layer"
     id="layer1"
     transform="translate(0,-308.26771)">
    <rect
       style="fill:none;fill-opacity:1;stroke:none;stroke-width:0.85003656000000005;stroke-linecap:butt;stroke-linejoin:miter;stroke-miterlimit:4;stroke-opacity:1;stroke-dasharray:none"
       id="rect3845"
       width="108.94141"
       height="108.94141"
       x="74.397064"
       y="870.89618" />
    <path
       style="font-size:144px;font-style:normal;font-variant:normal;font-weight:100;font-stretch:normal;text-align:start;line-height:125%;letter-spacing:0px;word-spacing:0px;writing-mode:lr-tb;text-anchor:start;fill:url(#linearGradient3940);fill-opacity:1.0;stroke:#151515;stroke-opacity:1;font-family:Skia;-inkscape-font-specification:Skia Thin"
       d="m 117.1959,873.32004 c -3.56253,9e-5 -7.46878,0.0313 -11.6875,0.125 -3.91892,0.0872 -5.855925,0.14851 -6.531255,0.15625 -0.042,4.8e-4 -0.37629,-7e-5 -0.40625,0 l -0.0937,0 -17.968749,10.78125 18.249999,10.125 c 0.0602,5.87716 0.0625,10.48146 0.0625,13.68746 -2e-5,6.3282 -2e-5,10.6563 0,13 -2e-5,12.047 -0.0313,22.1094 -0.125,30.2188 -0.0938,8.0625 -0.17189,13.5 -0.21875,16.3125 l 11.593755,0 c -0.0469,-2.8125 -0.0938,-9.7031 -0.1875,-20.7188 -0.0469,-11.0155 -0.0938,-19.7343 -0.0937,-26.1562 -3e-5,-2.8125 -3e-5,-7.6406 0,-14.4375 0.0469,-6.7968 0.12497,-14.62493 0.21875,-23.53126 0.42185,8e-5 1.0781,8e-5 1.96875,0 0.89059,-0.0468 2.18747,-0.0937 3.875,-0.0937 2.53121,8e-5 5.28121,0.14071 8.28125,0.375 2.99995,0.18758 5.87495,0.78133 8.59375,1.8125 3.32807,1.21883 5.93744,3.15633 7.8125,5.78125 1.92181,2.5782 2.87494,5.67195 2.875,9.28121 -6e-5,3.9376 -0.65631,7.0626 -1.96875,9.4063 -1.26568,2.3438 -2.76568,4.3125 -4.5,5.9062 -2.01568,1.8282 -4.51568,3.5313 -7.46875,5.125 -2.95317,1.547 -5.31254,2.5626 -7.09375,3.0313 l -0.0625,0.625 c 13.07807,14.9531 22.74994,25.9844 29.03125,33.0625 2.44275,2.7345 4.1325,4.6361 5.78125,6.4687 l -10.15625,2.25 30.25,11.5 -7.375,-30.1562 -4.03125,9.375 c -2.06524,-2.1429 -2.68318,-2.803 -7.09375,-7.375 -7.64069,-7.9687 -14.67194,-15.7187 -21.09375,-23.2188 l 0,-0.3437 c 3.65619,-2.1562 7.54681,-5.4375 11.625,-9.8438 4.12493,-4.453 6.18743,-9.9999 6.1875,-16.65621 -7e-5,-5.15618 -1.37507,-9.64055 -4.09375,-13.4375 -2.71882,-3.84366 -6.39069,-6.74991 -11.03125,-8.71875 -3.6563,-1.54678 -7.4063,-2.56241 -11.25,-3.03125 -3.84379,-0.46866 -7.79691,-0.68741 -11.875,-0.6875 z"
       id="text2993"
       inkscape:connector-curvature="0" />
  </g>
</svg>
