<?xml version="1.0" encoding="UTF-8" standalone="no"?>
<!-- Created with Inkscape (http://www.inkscape.org/) -->

<svg
   xmlns:dc="http://purl.org/dc/elements/1.1/"
   xmlns:cc="http://creativecommons.org/ns#"
   xmlns:rdf="http://www.w3.org/1999/02/22-rdf-syntax-ns#"
   xmlns:svg="http://www.w3.org/2000/svg"
   xmlns="http://www.w3.org/2000/svg"
   xmlns:xlink="http://www.w3.org/1999/xlink"
   xmlns:sodipodi="http://sodipodi.sourceforge.net/DTD/sodipodi-0.dtd"
   xmlns:inkscape="http://www.inkscape.org/namespaces/inkscape"
   width="1052.3622"
   height="744.09448"
   id="svg2"
   version="1.1"
   inkscape:version="0.48.1 "
   sodipodi:docname="shortcut.svg">
  <defs
     id="defs4">
    <linearGradient
       id="linearGradient5185">
      <stop
         style="stop-color:#cd1f1f;stop-opacity:1;"
         offset="0"
         id="stop5187" />
      <stop
         style="stop-color:#ffffff;stop-opacity:1;"
         offset="1"
         id="stop5189" />
    </linearGradient>
    <linearGradient
       inkscape:collect="always"
       id="linearGradient5133">
      <stop
         style="stop-color:#ffffff;stop-opacity:1;"
         offset="0"
         id="stop5135" />
      <stop
         style="stop-color:#ffffff;stop-opacity:0;"
         offset="1"
         id="stop5137" />
    </linearGradient>
    <linearGradient
       inkscape:collect="always"
       id="linearGradient5122">
      <stop
         style="stop-color:#ffffff;stop-opacity:1;"
         offset="0"
         id="stop5124" />
      <stop
         style="stop-color:#ffffff;stop-opacity:0;"
         offset="1"
         id="stop5126" />
    </linearGradient>
    <linearGradient
       inkscape:collect="always"
       id="linearGradient5091">
      <stop
         style="stop-color:#ffffff;stop-opacity:1;"
         offset="0"
         id="stop5093" />
      <stop
         style="stop-color:#ffffff;stop-opacity:0"
         offset="1"
         id="stop5095" />
    </linearGradient>
    <linearGradient
       inkscape:collect="always"
       id="linearGradient5058">
      <stop
         style="stop-color:#ffffff;stop-opacity:1;"
         offset="0"
         id="stop5060" />
      <stop
         style="stop-color:#ffffff;stop-opacity:0;"
         offset="1"
         id="stop5062" />
    </linearGradient>
    <linearGradient
       id="linearGradient5052">
      <stop
         id="stop5054"
         offset="0"
         style="stop-color:#ffffff;stop-opacity:1" />
      <stop
         id="stop5056"
         offset="1"
         style="stop-color:#ffb0b0;stop-opacity:1;" />
    </linearGradient>
    <linearGradient
       id="linearGradient5044">
      <stop
         style="stop-color:#ffffff;stop-opacity:1;"
         offset="0"
         id="stop5046" />
      <stop
         style="stop-color:#ffffff;stop-opacity:0;"
         offset="1"
         id="stop5048" />
    </linearGradient>
    <linearGradient
       inkscape:collect="always"
       id="linearGradient5032">
      <stop
         style="stop-color:#ffffff;stop-opacity:1;"
         offset="0"
         id="stop5034" />
      <stop
         style="stop-color:#ffffff;stop-opacity:0;"
         offset="1"
         id="stop5036" />
    </linearGradient>
    <linearGradient
       id="linearGradient3934">
      <stop
         style="stop-color:#c91313;stop-opacity:1;"
         offset="0"
         id="stop3946" />
      <stop
         style="stop-color:#ffb0b0;stop-opacity:1;"
         offset="1"
         id="stop3938" />
    </linearGradient>
    <linearGradient
       inkscape:collect="always"
       xlink:href="#linearGradient3934"
       id="linearGradient3940"
       x1="122.57492"
       y1="873.98822"
       x2="122.57492"
       y2="980.0979"
       gradientUnits="userSpaceOnUse" />
    <linearGradient
       inkscape:collect="always"
       xlink:href="#linearGradient3934"
       id="linearGradient3761"
       gradientUnits="userSpaceOnUse"
       x1="122.57492"
       y1="873.98822"
       x2="122.57492"
       y2="980.0979"
       gradientTransform="translate(0,-308.26771)" />
    <linearGradient
       inkscape:collect="always"
       xlink:href="#linearGradient3934"
       id="linearGradient3767"
       gradientUnits="userSpaceOnUse"
       gradientTransform="translate(0,-308.26771)"
       x1="122.57492"
       y1="873.98822"
       x2="122.57492"
       y2="980.0979" />
    <linearGradient
       inkscape:collect="always"
       xlink:href="#linearGradient3934"
       id="linearGradient3772"
       gradientUnits="userSpaceOnUse"
       gradientTransform="translate(0,-308.26771)"
       x1="122.57492"
       y1="873.98822"
       x2="122.57492"
       y2="980.0979" />
    <linearGradient
       inkscape:collect="always"
       xlink:href="#linearGradient3934"
       id="linearGradient3790"
       x1="53.475266"
       y1="582.55463"
       x2="53.660942"
       y2="607.24982"
       gradientUnits="userSpaceOnUse" />
    <linearGradient
       inkscape:collect="always"
       xlink:href="#linearGradient3934"
       id="linearGradient3803"
       gradientUnits="userSpaceOnUse"
       x1="53.475266"
       y1="582.55463"
       x2="53.660942"
       y2="607.24982" />
    <linearGradient
       inkscape:collect="always"
       xlink:href="#linearGradient3934"
       id="linearGradient3808"
       gradientUnits="userSpaceOnUse"
       x1="53.475266"
       y1="582.55463"
       x2="53.660942"
       y2="607.24982"
       gradientTransform="matrix(14.562684,0,0,14.562684,-562.79039,-7763.0921)" />
    <linearGradient
       inkscape:collect="always"
       xlink:href="#linearGradient5058"
       id="linearGradient5064"
       x1="-238.70511"
       y1="222.85361"
       x2="-228.56618"
       y2="322.85361"
       gradientUnits="userSpaceOnUse" />
    <linearGradient
       inkscape:collect="always"
       xlink:href="#linearGradient5032"
       id="linearGradient5071"
       gradientUnits="userSpaceOnUse"
       x1="-248.96831"
       y1="200.6954"
       x2="-234.39772"
       y2="367.36206" />
    <linearGradient
       inkscape:collect="always"
       xlink:href="#linearGradient5032"
       id="linearGradient5074"
       gradientUnits="userSpaceOnUse"
       x1="-248.96831"
       y1="200.6954"
       x2="-260.27335"
       y2="249.48186" />
    <linearGradient
       inkscape:collect="always"
       xlink:href="#linearGradient5185"
       id="linearGradient5191"
       x1="675.47302"
       y1="612.30457"
       x2="683.16632"
       y2="1041.5916"
       gradientUnits="userSpaceOnUse" />
    <linearGradient
       inkscape:collect="always"
       xlink:href="#linearGradient5032"
       id="linearGradient5205"
       gradientUnits="userSpaceOnUse"
       x1="-248.96831"
       y1="200.6954"
       x2="-234.39772"
       y2="367.36206" />
    <linearGradient
       inkscape:collect="always"
       xlink:href="#linearGradient5058"
       id="linearGradient5207"
       gradientUnits="userSpaceOnUse"
       gradientTransform="matrix(0,-0.91766211,-0.18,0.07304112,713.13159,591.405)"
       x1="-241.92126"
       y1="200.95732"
       x2="-226.56055"
       y2="361.74249" />
    <linearGradient
       inkscape:collect="always"
       xlink:href="#linearGradient5091"
       id="linearGradient5209"
       gradientUnits="userSpaceOnUse"
       gradientTransform="translate(1063.9459,370.16228)"
       x1="-221.31125"
       y1="358.0416"
       x2="-273.23444"
       y2="351.19241" />
    <linearGradient
       inkscape:collect="always"
       xlink:href="#linearGradient5122"
       id="linearGradient5211"
       gradientUnits="userSpaceOnUse"
       x1="-92.490295"
       y1="645.74969"
       x2="-110.99996"
       y2="645.82782"
       gradientTransform="matrix(0.98514781,-0.97685299,0.93775518,1.0262216,311.89594,106.22258)" />
    <linearGradient
       inkscape:collect="always"
       xlink:href="#linearGradient5133"
       id="linearGradient5213"
       gradientUnits="userSpaceOnUse"
       gradientTransform="matrix(1.1557584,0,0,1.0677967,976.68407,150.16555)"
       x1="-56.843201"
       y1="725.02155"
       x2="-68.375015"
       y2="724.76678" />
    <linearGradient
       inkscape:collect="always"
       xlink:href="#linearGradient5133"
       id="linearGradient5215"
       gradientUnits="userSpaceOnUse"
       gradientTransform="matrix(0,1.1557584,1.0332012,0,93.916378,1058.848)"
       x1="-56.843201"
       y1="725.02155"
       x2="-68.375015"
       y2="724.76678" />
  </defs>
  <sodipodi:namedview
     id="base"
     pagecolor="#ffffff"
     bordercolor="#666666"
     borderopacity="1.0"
     inkscape:pageopacity="0.0"
     inkscape:pageshadow="2"
     inkscape:zoom="0.47229059"
     inkscape:cx="355.67349"
     inkscape:cy="378.79433"
     inkscape:document-units="px"
     inkscape:current-layer="layer1"
     showgrid="false"
     inkscape:window-width="1920"
     inkscape:window-height="1005"
     inkscape:window-x="-9"
     inkscape:window-y="-9"
     inkscape:window-maximized="1" />
  <metadata
     id="metadata7">
    <rdf:RDF>
      <cc:Work
         rdf:about="">
        <dc:format>image/svg+xml</dc:format>
        <dc:type
           rdf:resource="http://purl.org/dc/dcmitype/StillImage" />
        <dc:title></dc:title>
      </cc:Work>
    </rdf:RDF>
  </metadata>
  <g
     inkscape:label="Ebene 1"
     inkscape:groupmode="layer"
     id="layer1"
     transform="translate(0,-308.26771)">
    <path
       style="fill:url(#linearGradient5191);fill-opacity:1;stroke:#000000;stroke-width:2.5;stroke-linecap:round;stroke-linejoin:round;stroke-miterlimit:4;stroke-opacity:1;stroke-dasharray:none"
       d="m 653.8368,599.70966 c -85.05185,0 -154,12.08831 -154,27 0,13.23756 54.36064,24.22535 126.0625,26.53125 -10.81979,32.89521 -18.0625,93.11283 -18.0625,161.96875 0,104.10568 16.56546,188.50004 37,188.50004 20.43454,0 37,-84.39436 37,-188.50004 0,-68.56758 -7.19288,-128.57737 -17.9375,-161.5625 44.34811,-0.52057 70.46226,-3.35241 85.4375,-8.9375 13.27811,20.98292 29,48.33912 29,75.75 -2.16146,31.397 -54.24775,63.31399 -81.24199,79.90625 -14.28334,13.3448 45.07617,63.97089 89.99199,113.25 21.26845,23.33455 43.25427,42.20973 62.0625,54.21875 -2.56398,-0.0759 -5.1626,-0.125 -7.8125,-0.125 -34.79394,0 -63,6.7157 -63,15 0,8.2842 28.20606,15 63,15 29.38207,0 54.0633,-4.80275 61.03125,-11.28125 0.11928,-0.1025 0.22551,-0.22945 0.34375,-0.34375 0.11433,-0.1183 0.24123,-0.22445 0.34375,-0.34375 6.47852,-6.9679 11.28125,-31.64925 11.28125,-61.03125 0,-34.794 -6.71573,-63 -15,-63 -8.28428,0 -15,28.206 -15,63 0,0.51811 0.0283,1.01613 0.0312,1.53125 -10.35258,-18.43287 -25.73957,-39.54604 -44.78125,-60.4375 -27.82734,-30.53059 -56.87965,-53.38643 -78.4375,-63.28125 35.50658,-9.56021 86.6875,-35.36031 86.6875,-79 -14.1742,-109.03732 -118.85871,-123.5026 -194,-123.8125 z"
       id="path5020"
       inkscape:connector-curvature="0"
       sodipodi:nodetypes="cscsssccccscssscccssscscccc" />
    <path
       transform="matrix(0.76640635,0,-0.06100195,0.18,845.64072,567.60794)"
       style="fill:url(#linearGradient5205);fill-opacity:1;stroke:none"
       d="m -53.989614,363.03471 c 0,47.17309 -94.875306,2.61214 -184.305366,2.61214 -89.43007,0 -174.78155,-8.83383 -174.78155,-56.00692 0,-47.17308 85.35148,-114.82194 174.78155,-114.82194 89.43006,0 184.305366,121.04364 184.305366,168.21672 z"
       id="path5193"
       inkscape:connector-curvature="0"
       sodipodi:nodetypes="sssss" />
    <path
       sodipodi:nodetypes="sssss"
       inkscape:connector-curvature="0"
       id="path5195"
       d="m 658.68976,660.95307 c -7.02944,2.85244 -8.72793,92.6929 -8.72793,174.75948 0,82.06657 -3.30151,152.28237 3.72793,149.42987 7.02943,-2.8524 24.84526,-83.28091 24.84526,-165.34745 0,-82.06658 -12.81582,-161.69433 -19.84526,-158.8419 z"
       style="fill:url(#linearGradient5207);fill-opacity:1;stroke:none" />
    <path
       sodipodi:nodetypes="sssss"
       inkscape:connector-curvature="0"
       id="path5197"
       d="m 844.25405,722.74739 c 0,39.7645 -37.06645,58.3105 -49.21671,58.3105 -12.15026,0 15.61317,-25.4913 15.61317,-65.2558 0,-39.7645 -26.93607,-68.32519 -14.78581,-68.32519 12.15026,0 48.38935,35.50599 48.38935,75.27049 z"
       style="fill:url(#linearGradient5209);fill-opacity:1;stroke:none" />
    <path
       sodipodi:nodetypes="sssss"
       inkscape:connector-curvature="0"
       id="path5199"
       d="m 829.60221,859.37175 c 31.47378,34.44297 57.29817,66.18956 49.06373,74.35467 -8.23444,8.1651 -42.75269,-22.45088 -74.22646,-56.89385 -31.47379,-34.44297 -57.76385,-59.67008 -49.52942,-67.83518 8.23443,-8.1651 43.21837,15.93139 74.69215,50.37436 z"
       style="fill:url(#linearGradient5211);fill-opacity:1;stroke:none" />
    <path
       sodipodi:nodetypes="sssss"
       inkscape:connector-curvature="0"
       id="path5201"
       d="m 912.38227,924.63872 c 0,30.7578 -7.69447,58.6839 -12.15316,58.6839 -4.45869,0 -2.36118,-29.8301 -2.36118,-60.5879 0,-30.75783 -1.82551,-58.13996 2.63318,-58.13996 4.45869,0 11.88116,29.28613 11.88116,60.04396 z"
       style="fill:url(#linearGradient5213);fill-opacity:1;stroke:none" />
    <path
       style="fill:url(#linearGradient5215);fill-opacity:1;stroke:none"
       d="m 843.29748,994.54622 c 29.76127,0 56.7826,-7.6945 56.7826,-12.1532 0,-4.4587 -28.86364,-2.3612 -58.62491,-2.3612 -29.76138,0 -56.25632,-1.8255 -56.25632,2.6332 0,4.4587 28.33726,11.8812 58.09863,11.8812 z"
       id="path5203"
       inkscape:connector-curvature="0"
       sodipodi:nodetypes="sssss" />
  </g>
</svg>
